<svg xmlns="http://www.w3.org/2000/svg" viewBox="0 0 672 155" width="672" height="155">
  <path d="M0 0 C1.391 0 2.782 0.006 4.174 0.016 C4.905 0.017 5.636 0.019 6.389 0.02 C8.733 0.026 11.076 0.038 13.42 0.051 C15.005 0.056 16.59 0.061 18.176 0.065 C22.069 0.076 25.963 0.093 29.857 0.114 C34.289 8.492 37.855 17.155 41.42 25.926 C42.038 27.439 42.657 28.953 43.277 30.466 C44.535 33.541 45.792 36.616 47.048 39.692 C49.432 45.524 51.84 51.345 54.252 57.165 C54.979 58.918 55.705 60.671 56.431 62.424 C57.399 64.763 58.368 67.103 59.337 69.442 C61.823 75.445 64.307 81.449 66.791 87.453 C68.078 90.565 69.366 93.677 70.654 96.789 C71.388 98.564 72.123 100.339 72.857 102.114 C75.828 96.391 78.409 90.574 80.842 84.606 C81.215 83.698 81.588 82.791 81.972 81.856 C82.771 79.91 83.57 77.964 84.367 76.017 C86.478 70.863 88.599 65.713 90.72 60.563 C91.15 59.52 91.579 58.478 92.021 57.404 C96.233 47.183 100.502 36.988 104.795 26.801 C105.127 26.011 105.459 25.222 105.802 24.408 C115.425 1.546 115.425 1.546 116.857 0.114 C119.233 0.025 121.579 -0.002 123.955 0.016 C124.309 0.017 124.309 0.017 126.103 0.02 C128.375 0.026 130.647 0.038 132.92 0.051 C134.457 0.056 135.994 0.061 137.531 0.065 C141.306 0.076 145.082 0.093 148.857 0.114 C148.271 4.636 147.04 8.534 145.224 12.688 C144.956 13.316 144.688 13.943 144.412 14.59 C143.525 16.663 142.629 18.732 141.732 20.801 C141.097 22.279 140.463 23.758 139.829 25.237 C138.503 28.327 137.174 31.415 135.842 34.503 C133.968 38.85 132.111 43.206 130.26 47.563 C122.944 64.756 115.455 81.868 107.878 98.947 C101.694 112.887 95.633 126.868 89.792 140.955 C88.885 143.05 87.898 145.083 86.857 147.114 C83.067 147.212 79.277 147.285 75.486 147.333 C74.197 147.353 72.908 147.381 71.619 147.415 C69.765 147.464 67.911 147.487 66.056 147.504 C64.941 147.525 63.826 147.546 62.676 147.568 C59.857 147.114 59.857 147.114 58.115 145.421 C56.753 142.922 55.602 140.442 54.529 137.805 C54.067 136.682 53.604 135.559 53.142 134.436 C52.894 133.83 52.647 133.223 52.392 132.598 C50.979 129.137 49.541 125.686 48.103 122.235 C47.78 121.459 47.457 120.683 47.124 119.884 C42.657 109.197 38.032 98.577 33.415 87.954 C32.668 86.236 31.922 84.517 31.176 82.799 C26.014 70.917 20.834 59.043 15.619 47.184 C15.21 46.255 14.802 45.325 14.381 44.368 C12.492 40.075 10.601 35.783 8.704 31.493 C4.262 21.429 -0.003 11.305 -4.143 1.114 C-3.143 0.114 -3.143 0.114 0 0 Z " fill="#000000" transform="translate(6.142822265625,3.886474609375)"/>
  <path d="M0 0 C0.604 0.002 1.208 0.004 1.831 0.006 C2.14 0.006 2.14 0.006 3.703 0.003 C5.011 0.003 6.319 0.004 7.627 0.009 C9.635 0.014 11.643 0.009 13.651 0.002 C14.919 0.003 16.188 0.004 17.456 0.006 C18.06 0.004 18.664 0.002 19.287 0 C23.528 0.024 23.528 0.024 24.643 1.139 C24.739 2.657 24.765 4.18 24.764 5.701 C24.765 6.687 24.766 7.673 24.768 8.688 C24.764 9.779 24.761 10.869 24.757 11.993 C24.757 13.134 24.757 14.275 24.757 15.451 C24.758 18.59 24.752 21.728 24.745 24.866 C24.738 28.143 24.738 31.419 24.737 34.696 C24.734 40.904 24.725 47.112 24.715 53.321 C24.704 60.387 24.699 67.454 24.694 74.52 C24.683 89.06 24.666 103.599 24.643 118.139 C25.405 118.137 26.167 118.135 26.952 118.132 C34.119 118.112 41.285 118.097 48.452 118.087 C52.136 118.082 55.821 118.075 59.506 118.064 C63.059 118.053 66.612 118.047 70.165 118.044 C71.524 118.042 72.882 118.039 74.241 118.033 C76.137 118.026 78.034 118.025 79.93 118.025 C81.012 118.023 82.093 118.021 83.207 118.019 C85.643 118.139 85.643 118.139 86.643 119.139 C86.732 121.224 86.759 123.276 86.741 125.362 C86.74 125.982 86.738 126.602 86.737 127.241 C86.731 129.228 86.719 131.214 86.706 133.201 C86.701 134.546 86.696 135.89 86.692 137.235 C86.681 140.536 86.664 143.838 86.643 147.139 C74.796 147.162 62.948 147.18 51.1 147.191 C45.6 147.196 40.099 147.203 34.598 147.214 C29.294 147.225 23.991 147.231 18.687 147.234 C16.658 147.236 14.63 147.239 12.602 147.245 C9.771 147.252 6.941 147.253 4.11 147.252 C3.263 147.256 2.416 147.26 1.543 147.263 C0.776 147.262 0.009 147.261 -0.782 147.259 C-1.117 147.26 -1.117 147.26 -2.812 147.262 C-4.357 147.139 -4.357 147.139 -5.357 146.139 C-5.455 144.268 -5.483 142.394 -5.484 140.521 C-5.485 139.928 -5.487 139.336 -5.488 138.726 C-5.492 136.728 -5.489 134.729 -5.486 132.731 C-5.487 131.304 -5.489 129.877 -5.491 128.45 C-5.496 124.563 -5.494 120.677 -5.491 116.791 C-5.488 112.733 -5.491 108.674 -5.492 104.616 C-5.494 97.8 -5.492 90.984 -5.487 84.168 C-5.482 76.276 -5.483 68.384 -5.489 60.493 C-5.493 53.729 -5.494 46.966 -5.491 40.202 C-5.49 36.157 -5.49 32.112 -5.493 28.068 C-5.496 24.266 -5.494 20.464 -5.488 16.662 C-5.487 15.263 -5.487 13.863 -5.489 12.464 C-5.492 10.562 -5.489 8.66 -5.484 6.757 C-5.483 5.69 -5.483 4.623 -5.483 3.524 C-5.267 -0.559 -3.672 0.021 0 0 Z " fill="#000000" transform="translate(175.356689453125,3.861053466796875)"/>
  <path d="M0 0 C0.509 0.002 0.509 0.002 3.083 0.015 C10.411 0.129 16.771 0.752 23.688 3.312 C24.675 3.653 25.662 3.993 26.68 4.344 C34.341 7.229 40.349 11.226 46.688 16.312 C47.18 16.699 47.673 17.085 48.18 17.482 C51.653 20.266 54.56 23.258 57.25 26.812 C57.459 27.087 57.459 27.087 58.518 28.479 C68.004 41.255 75.742 55.355 83.799 69.051 C87.664 75.611 91.58 82.136 95.562 88.625 C96.074 89.466 96.585 90.307 97.111 91.174 C105.531 104.813 114.538 115.339 130.402 120.133 C132.835 120.665 135.213 121.046 137.688 121.312 C138.328 121.383 138.969 121.454 139.629 121.527 C151.955 122.171 163.074 117.301 172.375 109.625 C181.688 100.944 186.672 89.235 187.16 76.609 C187.254 68.501 186.431 61.636 182.688 54.312 C182.481 53.888 182.481 53.888 181.438 51.742 C175.83 41.324 166.977 33.868 155.688 30.312 C141.469 26.866 128.764 28.788 116.191 36.345 C107.347 42.036 102.709 51.386 97.688 60.312 C94.268 59.173 93.942 58.601 92.094 55.672 C91.621 54.931 91.148 54.189 90.66 53.426 C90.174 52.646 89.688 51.866 89.188 51.062 C88.702 50.298 88.216 49.534 87.715 48.746 C86.775 47.264 85.844 45.776 84.922 44.283 C83.921 42.685 82.86 41.125 81.781 39.578 C80.688 37.313 80.688 37.313 80.785 34.797 C85.725 21.196 101.268 11.299 113.669 5.24 C129.077 -1.841 149.169 -2.508 165.207 2.934 C176.648 7.293 185.909 13.306 194.459 22.058 C195.506 23.127 196.584 24.165 197.668 25.195 C210.403 38.193 215.991 56.641 216.125 74.375 C215.862 93.906 210.222 111.826 196.688 126.312 C195.989 127.09 195.29 127.867 194.57 128.668 C181.547 142.502 163.968 150.116 145.098 150.718 C123.746 150.972 105.167 144.281 89.688 129.312 C79.939 118.741 72.144 106.373 64.771 94.077 C63.712 92.311 62.647 90.548 61.581 88.786 C58.036 82.919 54.519 77.037 51.024 71.14 C49.41 68.417 47.791 65.696 46.172 62.976 C45.027 61.045 43.889 59.11 42.752 57.174 C35.192 44.394 27.167 34.811 12.539 30.031 C-0.443 26.759 -11.847 28.595 -23.312 35.312 C-23.939 35.659 -24.565 36.006 -25.211 36.363 C-34.219 41.968 -40.439 53.054 -43.027 63.082 C-45.593 75.877 -44.238 88.898 -37.586 100.262 C-30.243 110.984 -20.922 117.569 -8.273 120.84 C-6.562 121.125 -6.562 121.125 -3.312 121.312 C-2.726 121.363 -2.139 121.413 -1.535 121.465 C10.385 122.074 21.832 117.221 30.75 109.535 C36.003 103.99 39.292 97.083 42.688 90.312 C43.347 90.312 44.007 90.312 44.688 90.312 C46.792 93.708 48.896 97.104 51 100.5 C51.595 101.46 52.19 102.419 52.803 103.408 C53.091 103.874 53.091 103.874 54.551 106.23 C55.08 107.084 55.609 107.938 56.154 108.817 C56.66 109.641 57.166 110.464 57.688 111.312 C58.248 112.192 58.808 113.071 59.385 113.977 C60.688 116.312 60.688 116.312 60.672 118.766 C59.376 122.12 57.367 124.481 54.938 127.062 C54.451 127.584 53.964 128.106 53.463 128.643 C40.06 142.519 22.41 150.207 3.176 151.312 C-17.329 151.312 -36.004 144.476 -50.656 130.074 C-54.247 126.406 -57.423 122.557 -60.312 118.312 C-60.833 117.557 -61.354 116.802 -61.891 116.023 C-66.281 109.216 -68.964 102.016 -71.312 94.312 C-71.561 93.504 -71.81 92.696 -72.066 91.863 C-77.155 71.473 -71.793 50.93 -61.312 33.312 C-59.201 30.062 -56.925 27.172 -54.312 24.312 C-53.562 23.482 -52.812 22.652 -52.039 21.797 C-38.196 6.977 -20.137 -0.115 0 0 Z " fill="#000000" transform="translate(333.3125,1.6875)"/>
  <path d="M0 0 C3.19 2.646 6.167 5.47 9.062 8.433 C10.109 9.502 11.187 10.54 12.271 11.571 C25.006 24.568 30.595 43.016 30.728 60.75 C30.465 80.282 24.825 98.202 11.291 112.688 C10.592 113.465 9.893 114.243 9.173 115.043 C-3.85 128.878 -21.429 136.491 -40.299 137.093 C-61.651 137.348 -80.23 130.657 -95.709 115.688 C-102.517 108.306 -108.116 100.005 -113.709 91.688 C-108.757 82.993 -103.769 74.321 -98.709 65.688 C-95.976 66.032 -94.954 66.382 -93.205 68.571 C-92.738 69.381 -92.272 70.192 -91.792 71.028 C-91.264 71.922 -90.737 72.815 -90.194 73.736 C-89.642 74.69 -89.09 75.643 -88.522 76.625 C-79.799 91.129 -71.093 102.342 -53.959 106.625 C-42.148 108.879 -30.289 107.636 -19.831 101.188 C-8.908 93.464 -1.028 83.158 1.291 69.688 C2.385 59.516 2.015 49.93 -2.709 40.688 C-3.122 39.84 -3.534 38.992 -3.959 38.118 C-9.567 27.7 -18.42 20.244 -29.709 16.688 C-43.928 13.241 -56.633 15.163 -69.206 22.72 C-78.05 28.412 -82.688 37.761 -87.709 46.688 C-91.129 45.548 -91.455 44.977 -93.303 42.047 C-93.776 41.306 -94.249 40.565 -94.737 39.801 C-95.223 39.021 -95.709 38.242 -96.209 37.438 C-96.695 36.674 -97.181 35.909 -97.682 35.122 C-98.622 33.639 -99.553 32.152 -100.475 30.659 C-101.476 29.061 -102.537 27.5 -103.616 25.954 C-104.709 23.688 -104.709 23.688 -104.612 21.172 C-99.672 7.572 -84.129 -2.325 -71.728 -8.384 C-49.079 -18.794 -19.722 -15.136 0 0 Z " fill="#D80204" transform="translate(518.70947265625,15.31201171875)"/>
  <path d="M0 0 C8.007 -0.047 16.014 -0.082 24.021 -0.104 C27.74 -0.114 31.459 -0.128 35.178 -0.151 C38.777 -0.173 42.375 -0.185 45.974 -0.19 C47.337 -0.193 48.701 -0.201 50.064 -0.211 C66.822 -0.34 82.223 1.375 94.812 13.621 C105.143 24.855 107.834 36.701 107.32 51.562 C106.654 63.011 101.492 74.177 93 82 C79.448 92.719 64.736 93.615 48.125 93.75 C46.358 93.778 44.591 93.808 42.824 93.84 C38.55 93.913 34.275 93.963 30 94 C29.995 94.325 29.995 94.325 29.969 95.967 C29.871 102.074 29.768 108.181 29.661 114.288 C29.605 117.428 29.552 120.568 29.503 123.708 C29.446 127.314 29.381 130.921 29.316 134.527 C29.3 135.66 29.283 136.792 29.266 137.958 C29.246 138.999 29.226 140.04 29.205 141.113 C29.19 142.035 29.174 142.956 29.158 143.906 C29 146 29 146 28 147 C25.915 147.088 23.863 147.115 21.777 147.098 C21.157 147.096 20.537 147.095 19.898 147.093 C17.911 147.088 15.924 147.075 13.938 147.062 C12.593 147.057 11.249 147.053 9.904 147.049 C6.603 147.038 3.301 147.021 0 147 C-1.331 144.338 -1.126 142.326 -1.127 139.344 C-1.129 138.76 -1.13 138.176 -1.132 137.574 C-1.136 135.608 -1.133 133.643 -1.129 131.678 C-1.131 130.272 -1.133 128.866 -1.135 127.46 C-1.139 123.636 -1.137 119.811 -1.134 115.987 C-1.132 111.991 -1.134 107.995 -1.136 103.998 C-1.138 97.287 -1.135 90.575 -1.13 83.863 C-1.125 76.095 -1.127 68.328 -1.132 60.561 C-1.137 53.9 -1.137 47.239 -1.135 40.579 C-1.133 36.597 -1.133 32.615 -1.136 28.633 C-1.139 24.891 -1.137 21.148 -1.131 17.405 C-1.13 16.029 -1.13 14.652 -1.133 13.276 C-1.135 11.403 -1.132 9.529 -1.127 7.656 C-1.127 6.606 -1.126 5.556 -1.126 4.474 C-1 2 -1 2 0 0 Z M 47 26 C 47.328 26.006 47.328 26.006 48.989 26.038 C 64.068 26.402 64.068 26.402 70 31 C 75.412 36.697 76.457 41.241 76.316 48.953 C 75.724 54.656 73.629 58.413 69.562 62.375 C 64.37 65.668 60.291 66.285 54.293 66.195 C 53.971 66.194 53.971 66.194 52.342 66.189 C 49.957 66.179 47.572 66.151 45.188 66.125 C 39.846 66.084 34.504 66.042 29 66 C 29 53.13 29 40.26 29 27 C 34.959 25.51 40.9 25.859 47 26 Z" fill="#000000" fill-rule="evenodd" transform="translate(563,4)"/>
</svg>
